PathFileType	4	(X/Y/Z)	Patient4_TMGait_0pt5_02_right_36.trc.trc
DataRate	CameraRate	NumFrames	NumMarkers	Units	OrigDataRate	OrigDataStartFrame	OrigNumFrames
77.777777777778	77.777777777778	4	33	mm	77.777777777778	71	       141
Frame#	Time	Sacral			L.Shoulder			Chest			R.Shoulder			Neck			R.ASIS			L.ASIS			R.Thigh.Superior			R.Thigh.Lateral			R.Thigh.Inferior			R.Patella			L.Thigh.Superior			L.Thigh.Lateral			L.Thigh.Inferior			L.Patella			L.Shank.Superior			L.Shank.Lateral			L.Shank.Inferior			R.Shank.Superior			R.Shank.Lateral			R.Shank.Inferior			R.Heel			R.Midfoot.Superior			R.Midfoot.Lateral			R.Toe			L.Heel			L.Midfoot.Lateral			L.Midfoot.Superior			L.Toe			L.Elbow			L.Wrist			R.Elbow			R.Wrist			
		X1	Y1	Z1	X2	Y2	Z2	X3	Y3	Z3	X4	Y4	Z4	X5	Y5	Z5	X6	Y6	Z6	X7	Y7	Z7	X8	Y8	Z8	X9	Y9	Z9	X10	Y10	Z10	X11	Y11	Z11	X12	Y12	Z12	X13	Y13	Z13	X14	Y14	Z14	X15	Y15	Z15	X16	Y16	Z16	X17	Y17	Z17	X18	Y18	Z18	X19	Y19	Z19	X20	Y20	Z20	X21	Y21	Z21	X22	Y22	Z22	X23	Y23	Z23	X24	Y24	Z24	X25	Y25	Z25	X26	Y26	Z26	X27	Y27	Z27	X28	Y28	Z28	X29	Y29	Z29	X30	Y30	Z30	X31	Y31	Z31	X32	Y32	Z32	X33	Y33	Z33	

71	47.920000000000	748.597891665902	1002.633278926457	521.083981996241	904.007264788721	1436.347919585709	343.608954129222	1024.669869099508	1356.658916267209	486.433103825331	964.351522569713	1420.987388257450	673.360016407044	923.697385512383	1489.419249545082	496.882901943508	980.799620520765	934.558881711882	618.360551244337	946.710313835872	956.462429953113	345.121035882342	982.277300540701	723.919696514594	590.395693784815	882.916020046088	628.515514730007	654.470205718385	942.484989945511	564.201409058750	572.420392114996	924.367649479727	477.679475658380	576.953000657324	1023.993511686975	771.139361210460	375.528913883389	971.483297260981	641.157056853654	303.162121804993	1074.877734205642	582.798838284779	363.220057214379	1098.108224188950	513.715240978694	361.962100658371	1078.386581834766	439.908159964803	353.005623439001	1003.566256337878	314.328351555937	303.936630748647	1082.848002426746	210.555834578984	360.977412274656	885.696599770742	393.190347607749	584.224155186372	801.776420159966	298.893029100470	645.912543693013	829.767043821048	200.345682946551	580.823864657572	680.127552664762	42.660537737736	548.854212722238	852.196333699167	96.655125594033	583.368631586819	763.799166332556	36.076956647252	623.387900861920	971.905399711102	43.784108313231	610.366151669488	984.962419377759	41.232199588830	401.479497218888	1058.490265773274	39.816082064239	320.867377685885	1136.456616099712	108.673976737975	342.071105056008	1266.616197167950	66.495177713405	315.126717781336	750.358027388476	1120.307541743887	238.218530720289	697.430356434213	866.442351791949	236.337539180543	1112.084059530986	1114.266997344790	771.668169898587	1341.621012060618	1180.313345001647	688.535846489867	
72	47.932857142857	750.086573349067	1001.335480109061	518.492559662621	904.209685598962	1434.979746147983	340.433748357433	1024.890865612299	1356.118008526637	483.718728803889	963.838462076081	1420.612200613870	670.387502457851	923.476414368259	1488.516417754905	493.590531618380	982.194699694627	933.587864881433	616.327154129728	948.681686517220	955.199782943646	343.190814220830	983.457014714094	722.652589934690	588.620210482468	883.442119628716	627.536457986379	652.610510920667	942.716740115359	562.748275634116	570.712149717724	923.929627199739	475.732606484307	575.116225085978	1025.754849234702	768.948743216632	374.391562374453	971.816492135809	639.237222168912	303.103164218039	1074.898580712442	580.602637761158	363.590608955803	1096.649933930062	510.668975823255	363.080885625950	1076.360507901340	436.617274288671	353.972493159795	999.947710955879	311.926044991223	305.023199847533	1077.177568815079	207.195246910213	362.953355747040	884.007417867806	391.866492033841	582.723134852881	798.995485342444	298.799607663535	644.949056453941	825.157607561249	199.745938506882	580.085763548786	673.765417431598	43.079179539964	548.962600353479	845.935301098110	96.594662453556	583.300491538409	757.434769498742	36.201200530535	623.402598137709	965.582122243129	43.163907707869	610.464343618963	975.896860710075	40.198396617667	402.999871671301	1049.867114875668	38.066077764799	322.682447622606	1129.136022664445	104.934482247684	345.178563205168	1258.878033862517	60.189224404738	318.588880966292	750.272326815135	1119.041195967842	236.154193309274	696.850845506328	865.121956240546	235.189569285146	1112.544926139213	1114.570581716005	769.378061166490	1339.361482127251	1186.440295438757	684.705459753841	
73	47.945714285714	751.522486176743	1000.256466996057	515.794572874346	904.536043029334	1433.759029113715	337.180995944143	1025.217889078995	1355.718029616789	480.946275361624	963.436297214171	1420.410176520692	667.352670853793	923.397426591359	1487.788486771947	490.203625124801	983.569883085218	932.713693486359	614.142807849413	950.630880070527	954.181040255178	341.145899795224	984.774761496857	721.524785205725	586.730695599042	884.189637731313	626.631953177260	650.600116614173	943.332279538195	561.400574134381	568.941596500435	923.980621562474	473.750321675541	573.293650848404	1027.423592302856	766.951523362847	373.070683942774	972.038891272183	637.652761546885	302.753742445369	1074.769179313108	578.638504166587	363.706214905908	1095.055017917231	507.959633830318	363.942509768391	1074.301422734201	433.726800136979	354.630347739284	996.544762978134	309.872614991038	305.640341547916	1071.714223197857	204.293230102055	364.509922287894	882.647656324593	390.605006813328	581.200824766443	796.397046925221	298.897781820784	643.918015324383	820.704393452192	199.309635571627	579.381773663208	667.452924782074	43.828082571783	549.106284391504	839.793214110691	96.625463818534	583.281364826017	751.126366046200	36.474278583081	623.422181457974	959.291287384740	42.489292638779	610.575065087649	967.327056656981	39.327715776276	404.088217443978	1041.645369442375	36.787475192770	323.981405077344	1121.952326852020	101.930691169427	347.746525988898	1251.357993327429	55.143744047068	321.330992250920	751.128876436306	1117.418334428176	233.910019993396	697.656585787173	863.367433411750	233.720771771050	1112.509893212809	1114.605511061307	767.087028197926	1336.976287839649	1191.193096269488	681.115891963694	
74	47.958571428571	752.860056898223	999.464390451435	513.018117202452	904.988739558780	1432.753644009732	333.891150656169	1025.654116393701	1355.488587455435	478.132412373840	963.198082086994	1420.429637474926	664.277199022110	923.486426308449	1487.285752102250	486.762917814996	984.864656960798	931.993719570113	611.813807811211	952.484967741172	953.475749318573	338.968936322723	986.156062599141	720.602301658732	584.717715522202	885.140864132895	625.854866374548	648.460586321322	944.333002150088	560.220342002864	567.130226695473	924.564514744150	471.782421591151	571.560214987876	1028.967465217204	765.307485604292	371.551709613941	972.219586874177	636.500322161225	302.069435859886	1074.526215865094	577.017979003003	363.508174967992	1093.418590143574	505.714577663575	364.465007839399	1072.287529682906	431.341787039694	354.949050616121	993.445033710314	308.268035768262	305.745529736762	1066.539457728984	201.947387193979	365.612500757740	881.647796340861	389.450600489533	579.704440163190	794.004217289820	299.247970927800	642.851122909045	816.447419202064	199.095733187995	578.742165168839	661.207816610287	45.013898687775	549.292458031071	833.808599344584	96.766388626560	583.325287930643	744.886658237331	36.950921207325	623.453964281708	953.038928743182	41.772322299144	610.693128069207	959.374099955690	38.663858836896	404.777925662304	1033.936977204409	35.962276608190	324.794742105260	1115.009053855772	99.714084703920	349.697149250914	1244.161776372474	51.429716180888	323.296365010659	752.908625458909	1115.534676451266	231.472350960426	699.894979585084	861.256059302965	231.915360542837	1111.947679233672	1114.386756588325	764.780754709535	1334.537485818297	1194.531977689225	677.765925043945	
